<svg width="173" height="44" viewBox="0 0 173 44" fill="none" xmlns="http://www.w3.org/2000/svg">
<path d="M13.1151 38.0584L5.44196 30.3814V5.44469H9.25133L32.5973 28.8024V21.1254L11.5007 0L0 0L0 32.6137H0.0181399L0 32.6318L10.8476 43.4849H10.8658H25.1418L19.718 38.0584H13.1151Z" fill="#2F7F31"/>
<path d="M43.463 10.8531L32.6335 -3.8147e-06L18.3393 -3.8147e-06L23.7813 5.44468H30.3661L38.0392 13.1035V38.0584H34.2299L10.8839 14.6825L10.8657 22.3595L31.9805 43.4849H43.463V10.8712H43.4449L43.463 10.8531Z" fill="#2F7F31"/>
<path d="M61.4032 24.4285H57.5394L53.5486 16.7334H53.4761C53.5667 17.9493 53.6212 18.8749 53.6212 19.5102V24.4285H51.009V13.5028H54.8547L58.8273 21.0891H58.8817C58.8092 19.982 58.7729 19.1109 58.7729 18.4394V13.5028H61.4032V24.4285Z" fill="#3C423C"/>
<path d="M73.5933 13.5028V20.0728C73.5933 21.5065 73.1942 22.6136 72.3779 23.394C71.5616 24.1744 70.4006 24.5737 68.8769 24.5737C67.3894 24.5737 66.2466 24.1926 65.4484 23.4303C64.6503 22.6681 64.2512 21.5791 64.2512 20.1454V13.5028H67.208V19.9094C67.208 20.6898 67.3531 21.2343 67.6434 21.5973C67.9336 21.9421 68.3508 22.1236 68.9132 22.1236C69.5118 22.1236 69.9471 21.9421 70.2192 21.5973C70.4913 21.2524 70.6183 20.6898 70.6183 19.8913V13.5028H73.5933Z" fill="#3C423C"/>
<path d="M81.1755 24.4104L78.9443 16.5337H78.8717C78.9806 17.8767 79.035 18.9112 79.035 19.6553V24.3922H76.4229V13.4847H80.3592L82.6448 21.2343H82.6992L84.9304 13.4847H88.8668V24.4104H86.1639V19.619C86.1639 19.365 86.1639 19.0927 86.1821 18.7842C86.1821 18.4757 86.2184 17.7316 86.2909 16.5519H86.2184L83.9872 24.4104H81.1755Z" fill="#3C423C"/>
<path d="M98.1908 24.4104H91.7148V13.4847H98.1908V15.8622H94.6535V17.5864H97.9187V19.9639H94.6535V22.0329H98.1908V24.4104Z" fill="#3C423C"/>
<path d="M103.887 20.4357V24.4104H100.93V13.4847H104.503C107.478 13.4847 108.948 14.5555 108.948 16.7152C108.948 17.9856 108.331 18.9657 107.097 19.6553L110.272 24.4104H106.934L104.612 20.4357H103.887ZM103.887 18.2216H104.431C105.465 18.2216 105.973 17.7678 105.973 16.8604C105.973 16.1163 105.465 15.7352 104.449 15.7352H103.869V18.2216H103.887Z" fill="#3C423C"/>
<path d="M112.394 24.4104V13.4847H115.369V24.4104H112.394Z" fill="#3C423C"/>
<path d="M122.825 15.7533C122.117 15.7533 121.573 16.0437 121.174 16.6245C120.775 17.2052 120.576 17.9856 120.576 19.002C120.576 21.1073 121.374 22.1599 122.97 22.1599C123.46 22.1599 123.913 22.0873 124.367 21.9603C124.82 21.8332 125.274 21.6699 125.727 21.4702V23.9566C124.82 24.3559 123.786 24.5556 122.644 24.5556C120.993 24.5556 119.723 24.0837 118.852 23.1218C117.982 22.1599 117.528 20.7806 117.528 18.9657C117.528 17.8404 117.746 16.8422 118.163 15.9892C118.58 15.1362 119.197 14.4647 119.995 14.011C120.793 13.5573 121.737 13.3213 122.807 13.3213C123.986 13.3213 125.111 13.5754 126.199 14.0836L125.292 16.4067C124.893 16.2252 124.494 16.0618 124.077 15.9348C123.714 15.8259 123.278 15.7533 122.825 15.7533Z" fill="#3C423C"/>
<path d="M135.16 24.4104L134.616 22.3595H131.06L130.516 24.4104H127.269L130.824 13.4484H134.779L138.389 24.4104H135.16ZM134.017 19.9457L133.545 18.149C133.437 17.7497 133.31 17.2415 133.146 16.6063C132.983 15.9711 132.892 15.5174 132.838 15.2451C132.802 15.4992 132.711 15.9166 132.566 16.4974C132.439 17.0782 132.149 18.2216 131.695 19.9457H134.017Z" fill="#3C423C"/>
<path d="M140.511 24.4466V13.521H143.468V22.0691H147.676V24.4466H140.511Z" fill="#3C423C"/>
<path d="M55.6529 43.5212H52.6961V35.0093H50.0295V32.5955H58.3013V35.0093H55.6348V43.5212H55.6529Z" fill="#3C423C"/>
<path d="M66.5914 43.5212H60.1155V32.5955H66.5914V34.973H63.0541V36.6972H66.3193V39.0747H63.0541V41.1437H66.5914V43.5212Z" fill="#3C423C"/>
<path d="M73.7745 34.8642C73.067 34.8642 72.5228 35.1546 72.1237 35.7353C71.7246 36.3161 71.5251 37.0965 71.5251 38.1128C71.5251 40.2181 72.3233 41.2708 73.9196 41.2708C74.4093 41.2708 74.8628 41.1982 75.3163 41.0711C75.7698 40.9441 76.2233 40.7807 76.6768 40.5811V43.0857C75.7698 43.4849 74.7359 43.6846 73.5749 43.6846C71.9242 43.6846 70.6725 43.2127 69.7837 42.2508C68.913 41.2889 68.4595 39.9096 68.4595 38.0947C68.4595 36.9695 68.6772 35.9713 69.0944 35.1183C69.5116 34.2653 70.1283 33.5938 70.9265 33.14C71.7246 32.6863 72.6679 32.4504 73.7382 32.4504C74.9173 32.4504 76.0419 32.7045 77.1303 33.2126L76.2233 35.5357C75.8243 35.3542 75.4252 35.1909 75.008 35.0638C74.6633 34.9368 74.2461 34.8642 73.7745 34.8642Z" fill="#3C423C"/>
<path d="M88.7219 43.5212H85.7651V39.0747H82.3367V43.5212H79.3799V32.5955H82.3367V36.6609H85.7651V32.6137H88.7219V43.5212Z" fill="#3C423C"/>
<path d="M101.819 43.5212H97.9552L93.9644 35.826H93.8918C93.9825 37.042 94.0369 37.9676 94.0369 38.6028V43.5212H91.4248V32.5955H95.2705L99.2431 40.1818H99.2975C99.2249 39.0747 99.1887 38.2035 99.1887 37.532V32.5955H101.819V43.5212Z" fill="#3C423C"/>
<path d="M114.481 38.2217C114.481 40.0548 114.027 41.4522 113.12 42.4141C112.213 43.376 110.907 43.8479 109.166 43.8479C107.46 43.8479 106.136 43.376 105.229 42.4141C104.322 41.4522 103.851 40.0548 103.851 38.2217C103.851 36.4068 104.304 35.0094 105.211 34.0475C106.118 33.0856 107.442 32.6137 109.166 32.6137C110.907 32.6137 112.213 33.0856 113.12 34.0475C114.045 34.9731 114.481 36.3705 114.481 38.2217ZM106.971 38.2217C106.971 40.327 107.696 41.3978 109.166 41.3978C109.909 41.3978 110.472 41.1437 110.834 40.6355C111.197 40.1274 111.379 39.3288 111.379 38.2399C111.379 37.1509 111.197 36.3342 110.834 35.8261C110.472 35.2997 109.927 35.0457 109.202 35.0457C107.714 35.0094 106.971 36.0801 106.971 38.2217Z" fill="#3C423C"/>
<path d="M116.802 43.5212V32.5955H119.759V41.1437H123.968V43.5212H116.802Z" fill="#3C423C"/>
<path d="M135.704 38.2035C135.704 40.0366 135.251 41.4341 134.344 42.396C133.437 43.3579 132.131 43.8297 130.389 43.8297C128.684 43.8297 127.36 43.3579 126.453 42.396C125.546 41.4341 125.074 40.0366 125.074 38.2035C125.074 36.3887 125.528 34.9912 126.435 34.0293C127.342 33.0674 128.666 32.5955 130.389 32.5955C132.131 32.5955 133.437 33.0674 134.344 34.0293C135.251 34.9549 135.704 36.3524 135.704 38.2035ZM128.194 38.2035C128.194 40.3088 128.92 41.3796 130.389 41.3796C131.133 41.3796 131.695 41.1255 132.058 40.6174C132.421 40.1092 132.602 39.3106 132.602 38.2217C132.602 37.1328 132.421 36.3161 132.058 35.8079C131.695 35.2816 131.151 35.0275 130.425 35.0275C128.938 34.9912 128.194 36.062 128.194 38.2035Z" fill="#3C423C"/>
<path d="M142.398 37.1328H147.114V43.013C145.826 43.4486 144.429 43.6664 142.888 43.6664C141.201 43.6664 139.913 43.1764 138.988 42.1963C138.062 41.2163 137.609 39.8188 137.609 38.0221C137.609 36.2616 138.117 34.8823 139.115 33.9023C140.112 32.9222 141.527 32.4322 143.341 32.4322C144.03 32.4322 144.683 32.5048 145.282 32.6318C145.899 32.7589 146.425 32.9222 146.878 33.1219L145.953 35.4449C145.173 35.0638 144.302 34.8642 143.359 34.8642C142.507 34.8642 141.835 35.1364 141.364 35.699C140.892 36.2616 140.656 37.0602 140.656 38.0947C140.656 39.111 140.874 39.8914 141.291 40.4359C141.708 40.9804 142.325 41.2344 143.142 41.2344C143.577 41.2344 143.976 41.1981 144.357 41.1074V39.4014H142.398V37.1328Z" fill="#3C423C"/>
<path d="M150.089 43.5212V32.5955H153.046V43.5212H150.089Z" fill="#3C423C"/>
<path d="M162.624 43.5212H156.148V32.5955H162.624V34.973H159.086V36.6972H162.352V39.0747H159.086V41.1437H162.624V43.5212Z" fill="#3C423C"/>
<path d="M172.51 40.2181C172.51 40.8896 172.347 41.4885 172.002 42.0148C171.657 42.5412 171.168 42.9404 170.515 43.249C169.862 43.5394 169.1 43.6845 168.229 43.6845C167.503 43.6845 166.887 43.6301 166.397 43.5394C165.907 43.4305 165.399 43.2671 164.855 43.013V40.3814C165.417 40.6718 165.998 40.8896 166.615 41.0529C167.231 41.2163 167.776 41.2889 168.283 41.2889C168.719 41.2889 169.045 41.2163 169.245 41.0529C169.444 40.9078 169.553 40.7081 169.553 40.4722C169.553 40.327 169.517 40.1999 169.426 40.0729C169.336 39.964 169.209 39.8551 169.027 39.7281C168.846 39.6192 168.356 39.3832 167.576 39.0203C166.869 38.6936 166.324 38.3851 165.98 38.0765C165.617 37.768 165.363 37.4232 165.181 37.0239C165.018 36.6246 164.928 36.1709 164.928 35.6264C164.928 34.6282 165.29 33.8297 166.034 33.267C166.76 32.7044 167.776 32.414 169.045 32.414C170.17 32.414 171.331 32.6681 172.51 33.1945L171.603 35.4812C170.587 35.0093 169.698 34.7734 168.955 34.7734C168.574 34.7734 168.283 34.846 168.12 34.973C167.939 35.1001 167.866 35.2816 167.866 35.4812C167.866 35.699 167.975 35.8805 168.193 36.062C168.41 36.2253 169.009 36.5339 169.989 36.9876C170.932 37.405 171.585 37.8587 171.948 38.3488C172.329 38.8751 172.51 39.474 172.51 40.2181Z" fill="#3C423C"/>
</svg>
