<svg width="33" height="33" viewBox="0 0 33 33" fill="none" xmlns="http://www.w3.org/2000/svg">
<path opacity="0.35" d="M6.09172 30.0356C4.18102 30.0356 2.62672 28.4813 2.62672 26.5706L2.63695 19.7898C2.04493 19.4083 1.65124 18.7433 1.64992 17.9886L1.63672 10.0742C1.63672 8.16058 3.19102 6.60562 5.10172 6.60562H9.89233V6.44062C9.89233 4.52992 11.4466 2.97562 13.3573 2.97562H20.95C22.8607 2.97562 24.415 4.52992 24.415 6.44062V6.60562H29.1917C31.1024 6.60562 32.6567 8.15992 32.6567 10.0706L32.6699 17.9814C32.6706 18.5556 32.4478 19.0948 32.0429 19.5004C31.9307 19.6129 31.808 19.7116 31.6773 19.7954L31.6667 26.5739C31.6667 28.2398 30.3758 30.0356 27.5417 30.0356H6.09172Z" fill="black"/>
<path d="M5.43181 29.3756C3.52111 29.3756 1.96681 27.8213 1.96681 25.9106L1.97704 19.1298C1.38502 18.7483 0.991327 18.0833 0.990007 17.3286L0.976807 9.41424C0.976807 7.50057 2.53111 5.94561 4.44181 5.94561H9.23241V5.78061C9.23241 3.86991 10.7867 2.31561 12.6974 2.31561H20.2901C22.2008 2.31561 23.7551 3.86991 23.7551 5.78061V5.94561H28.5318C30.4425 5.94561 31.9968 7.49991 31.9968 9.41061L32.01 17.3214C32.0107 17.8956 31.7879 18.4348 31.383 18.8404C31.2708 18.9529 31.148 19.0516 31.0174 19.1354L31.0068 25.9139C31.0068 27.5798 29.7158 29.3756 26.8818 29.3756H5.43181Z" fill="#F2F2F2"/>
<path d="M28.532 8.09061L22.0145 8.25H11.174L5.43205 8.09061C4.70308 8.09061 3.12205 8.68164 3.12205 9.41061L3.02173 16.4149L4.11172 17.2045C4.11172 17.7514 4.11172 25.9106 4.11172 25.9106C4.11172 26.6396 4.70275 27.2306 5.43172 27.2306H26.8817C28.2707 27.2306 28.8617 26.6396 28.8617 25.9106V17.325L29.6999 17.16L29.852 9.41061C29.852 8.68164 29.261 8.09061 28.532 8.09061Z" fill="#9AA2E6"/>
<path d="M12.0321 5.1206H20.9421V8.0906H12.0321V5.1206ZM28.5321 8.0906H21.6103V5.7806C21.6103 5.05163 21.0193 4.4606 20.2903 4.4606H12.6974C11.9684 4.4606 11.3774 5.05163 11.3774 5.7806V8.0906H4.44207C3.7131 8.0906 3.12207 8.68163 3.12207 9.4106L3.13494 17.325H4.12494L4.11207 25.9106C4.11207 26.6396 4.7031 27.2306 5.43207 27.2306H26.8821C28.271 27.2306 28.8621 26.6396 28.8621 25.9106L28.8749 17.325H29.8649L29.8521 9.4106C29.8521 8.68163 29.261 8.0906 28.5321 8.0906Z" stroke="#40396E" stroke-width="3" stroke-miterlimit="10" stroke-linecap="round" stroke-linejoin="round"/>
<path d="M12.527 5.28561H11.207V8.58561H12.527V5.28561Z" fill="#40396E"/>
<path d="M21.767 5.28561H20.447V8.58561H21.767V5.28561Z" fill="#40396E"/>
<path d="M21.1071 4.62561H11.5371V5.61561H21.1071V4.62561Z" fill="#40396E"/>
<path opacity="0.35" d="M29.5351 16.83H3.46509V17.82H29.5351V16.83Z" fill="#40396E"/>
<path d="M19.47 15.18H13.53V19.47H19.47V15.18Z" fill="#D9EEFF"/>
<path d="M18.48 18.48V16.17H14.52V18.48H18.48Z" fill="#9BA7C5"/>
</svg>
